<svg width="122" height="122" viewBox="0 0 122 122" version="1.1" xmlns="http://www.w3.org/2000/svg" xmlns:xlink="http://www.w3.org/1999/xlink">
<title>noun_846703_cc</title>
<desc>Created using Figma</desc>
<g id="Canvas" transform="matrix(2 0 0 2 -518 -5356)">
<g id="noun_846703_cc">
<g id="Group">
<g id="Vector">
<use xlink:href="#path0_fill" transform="translate(272.128 2691.34)"/>
</g>
<g id="Vector">
<use xlink:href="#path1_fill" transform="translate(282.189 2701.76)"/>
</g>
<g id="Vector">
<use xlink:href="#path2_fill" transform="translate(281.638 2685.83)"/>
</g>
<g id="Vector">
<use xlink:href="#path3_fill" transform="translate(276.295 2685.83)"/>
</g>
<g id="Vector">
<use xlink:href="#path3_fill" transform="translate(287.044 2685.83)"/>
</g>
<g id="Vector">
<use xlink:href="#path4_fill" transform="translate(292.513 2685.83)"/>
</g>
<g id="Vector">
<use xlink:href="#path5_fill" transform="translate(277.992 2678)"/>
</g>
<g id="Vector">
<use xlink:href="#path6_fill" transform="translate(283.336 2678)"/>
</g>
<g id="Vector">
<use xlink:href="#path7_fill" transform="translate(288.742 2678)"/>
</g>
<g id="Vector">
<use xlink:href="#path8_fill" transform="translate(294.21 2678)"/>
</g>
<g id="Vector">
<use xlink:href="#path9_fill" transform="translate(307.444 2700.85)"/>
</g>
<g id="Vector">
<use xlink:href="#path10_fill" transform="translate(307.444 2695.51)"/>
</g>
<g id="Vector">
<use xlink:href="#path11_fill" transform="translate(307.444 2706.26)"/>
</g>
<g id="Vector">
<use xlink:href="#path12_fill" transform="translate(307.444 2711.73)"/>
</g>
<g id="Vector">
<use xlink:href="#path13_fill" transform="translate(311.593 2697.2)"/>
</g>
<g id="Vector">
<use xlink:href="#path14_fill" transform="translate(311.593 2702.55)"/>
</g>
<g id="Vector">
<use xlink:href="#path15_fill" transform="translate(311.593 2707.95)"/>
</g>
<g id="Vector">
<use xlink:href="#path16_fill" transform="translate(307.444 2713.42)"/>
</g>
<g id="Vector">
<use xlink:href="#path17_fill" transform="translate(292.701 2726.52)"/>
</g>
<g id="Vector">
<use xlink:href="#path18_fill" transform="translate(298.046 2726.52)"/>
</g>
<g id="Vector">
<use xlink:href="#path19_fill" transform="translate(287.296 2726.52)"/>
</g>
<g id="Vector">
<use xlink:href="#path20_fill" transform="translate(281.827 2726.52)"/>
</g>
<g id="Vector">
<use xlink:href="#path21_fill" transform="translate(272.209 2726.52)"/>
</g>
<g id="Vector">
<use xlink:href="#path22_fill" transform="translate(295.09 2730.67)"/>
</g>
<g id="Vector">
<use xlink:href="#path23_fill" transform="translate(281.261 2730.67)"/>
</g>
<g id="Vector">
<use xlink:href="#path24_fill" transform="translate(288.993 2730.67)"/>
</g>
<g id="Vector">
<use xlink:href="#path25_fill" transform="translate(266.827 2712.26)"/>
</g>
<g id="Vector">
<use xlink:href="#path26_fill" transform="translate(259.077 2717.61)"/>
</g>
<g id="Vector">
<use xlink:href="#path27_fill" transform="translate(266.827 2706.86)"/>
</g>
<g id="Vector">
<use xlink:href="#path28_fill" transform="translate(259 2704.09)"/>
</g>
<g id="Vector">
<use xlink:href="#path29_fill" transform="translate(259 2695.86)"/>
</g>
<g id="Vector">
<use xlink:href="#path30_fill" transform="translate(259.077 2713.96)"/>
</g>
</g>
</g>
</g>
<defs>
<path id="path0_fill" d="M 31.1307 5.54727e-07L 3.10343 5.54727e-07C 1.39196 5.54727e-07 -1.06678e-08 1.39266 -1.06678e-08 3.10343L -1.06678e-08 31.13C -1.06678e-08 32.8422 1.39196 34.2342 3.10343 34.2342L 31.13 34.2342C 32.8415 34.2342 34.2335 32.8422 34.2335 31.13L 34.2335 3.10412C 34.2342 1.39336 32.8422 5.54727e-07 31.1307 5.54727e-07ZM 33.4295 31.1307C 33.4295 32.3989 32.3976 33.4295 31.1307 33.4295L 3.10343 33.4295C 1.83591 33.4295 0.804695 32.3989 0.804695 31.1307L 0.804695 3.10412C 0.804695 1.83661 1.83591 0.806094 3.10343 0.806094L 31.13 0.806094C 32.3976 0.806094 33.4288 1.83731 33.4288 3.10412L 33.4288 31.1307L 33.4295 31.1307Z"/>
<path id="path1_fill" d="M 10.891 -6.82741e-07L 3.22088 -6.82741e-07C 1.4423 -6.82741e-07 5.12056e-07 1.4423 5.12056e-07 3.22088L 5.12056e-07 10.1723C 5.12056e-07 11.9509 1.4423 13.3932 3.22088 13.3932L 10.891 13.3932C 12.6703 13.3932 14.1119 11.9509 14.1119 10.1723L 14.1119 3.22088C 14.1126 1.4416 12.6703 -6.82741e-07 10.891 -6.82741e-07Z"/>
<path id="path2_fill" d="M 2.07431 4.14862C 3.21992 4.14862 4.14862 3.21992 4.14862 2.07431C 4.14862 0.928699 3.21992 0 2.07431 0C 0.9287 0 0 0.928699 0 2.07431C 0 3.21992 0.9287 4.14862 2.07431 4.14862Z"/>
<path id="path3_fill" d="M 2.07431 4.14862C 3.21992 4.14862 4.14862 3.21992 4.14862 2.07431C 4.14862 0.928699 3.21992 0 2.07431 0C 0.928699 0 0 0.928699 0 2.07431C 0 3.21992 0.928699 4.14862 2.07431 4.14862Z"/>
<path id="path4_fill" d="M 2.07431 4.14862C 3.21992 4.14862 4.14862 3.21992 4.14862 2.07431C 4.14862 0.928699 3.21992 0 2.07431 0C 0.928701 0 0 0.928699 0 2.07431C 0 3.21992 0.928701 4.14862 2.07431 4.14862Z"/>
<path id="path5_fill" d="M 0.754358 2.73428L 5.40705 2.73428L 5.40705 -5.8673e-08L 4.65199 -5.8673e-08L 4.65199 1.98063L -1.00278e-06 1.98063L -1.00278e-06 7.82672L 0.377528 7.82672L 0.754358 7.82672L 0.754358 2.73428Z"/>
<path id="path6_fill" d="M -2.98699e-07 7.82672L 0.37683 7.82672L 0.754357 7.82672L 0.754357 5.94048L 3.14258 5.94048L 3.14258 -5.8673e-08L 2.38892 -5.8673e-08L 2.38892 5.18612L -2.98699e-07 5.18612L -2.98699e-07 7.82672Z"/>
<path id="path7_fill" d="M 0.754358 -5.8673e-08L 1.28014e-06 -5.8673e-08L 1.28014e-06 7.82672L 0.376829 7.82672L 0.754358 7.82672L 0.754358 -5.8673e-08Z"/>
<path id="path8_fill" d="M 0.754357 4.71491L 5.53219 4.71491L 5.53219 7.86448C 4.5674 8.04206 3.83471 8.8845 3.83471 9.90103C 3.83471 11.0469 4.76385 11.9753 5.90972 11.9753C 7.05489 11.9753 7.98402 11.0469 7.98402 9.90103C 7.98402 8.8845 7.25204 8.04206 6.28654 7.86448L 6.28654 -5.86731e-08L 5.53219 -5.86731e-08L 5.53219 3.96055L 2.98699e-07 3.96055L 2.98699e-07 7.82603L 0.377529 7.82603L 0.754357 7.82603L 0.754357 4.71491Z"/>
<path id="path9_fill" d="M 2.07431 4.14862C 3.21992 4.14862 4.14862 3.21992 4.14862 2.07431C 4.14862 0.928699 3.21992 0 2.07431 0C 0.928697 0 0 0.928699 0 2.07431C 0 3.21992 0.928697 4.14862 2.07431 4.14862Z"/>
<path id="path10_fill" d="M 2.07431 4.14862C 3.21992 4.14862 4.14862 3.21992 4.14862 2.07431C 4.14862 0.928701 3.21992 0 2.07431 0C 0.928697 0 0 0.928701 0 2.07431C 0 3.21992 0.928697 4.14862 2.07431 4.14862Z"/>
<path id="path11_fill" d="M 2.07431 4.14862C 3.21992 4.14862 4.14862 3.21992 4.14862 2.07431C 4.14862 0.928701 3.21992 0 2.07431 0C 0.928697 0 0 0.928701 0 2.07431C 0 3.21992 0.928697 4.14862 2.07431 4.14862Z"/>
<path id="path12_fill" d="M 2.07431 4.14862C 3.21992 4.14862 4.14862 3.21992 4.14862 2.07431C 4.14862 0.9287 3.21992 0 2.07431 0C 0.928697 0 0 0.9287 0 2.07431C 0 3.21992 0.928697 4.14862 2.07431 4.14862Z"/>
<path id="path13_fill" d="M 5.84679 4.65199L 5.84679 5.12055e-07L -8.10755e-07 5.12055e-07L -8.10755e-07 0.377529L -8.10755e-07 0.754357L 5.09244 0.754357L 5.09244 5.40634L 7.82672 5.40634L 7.82672 4.65199L 5.84679 4.65199Z"/>
<path id="path14_fill" d="M 2.6406 1.21613e-06L -8.10755e-07 1.21613e-06L -8.10755e-07 0.377527L -8.10755e-07 0.754358L 1.88624 0.754358L 1.88624 3.14327L 7.82672 3.14327L 7.82672 2.38892L 2.6406 2.38892L 2.6406 1.21613e-06Z"/>
<path id="path15_fill" d="M -8.10755e-07 0.37683L -8.10755e-07 0.754357L 7.82672 0.754357L 7.82672 1.28014e-07L -8.10755e-07 1.28014e-07L -8.10755e-07 0.37683Z"/>
<path id="path16_fill" d="M 8.01549 -8.53426e-07L 4.14932 -8.53426e-07L 4.14932 0.377528L 4.14932 0.754358L 7.26113 0.754358L 7.26113 5.53219L 4.11156 5.53219C 3.93399 4.56739 3.09084 3.83541 2.07431 3.83541C 0.929836 3.83541 8.96098e-07 4.76385 8.96098e-07 5.90972C 8.96098e-07 7.05559 0.929836 7.98402 2.07431 7.98402C 3.09084 7.98402 3.93399 7.25204 4.11156 6.28655L 11.976 6.28655L 11.976 5.53219L 8.01549 5.53219L 8.01549 -8.53426e-07Z"/>
<path id="path17_fill" d="M 2.07431 4.14862C 3.21992 4.14862 4.14862 3.21992 4.14862 2.07431C 4.14862 0.928699 3.21992 2.26158e-06 2.07431 2.26158e-06C 0.928699 2.26158e-06 0 0.928699 0 2.07431C 0 3.21992 0.928699 4.14862 2.07431 4.14862Z"/>
<path id="path18_fill" d="M 2.07431 4.14862C 3.21992 4.14862 4.14862 3.21992 4.14862 2.07431C 4.14862 0.928699 3.21992 2.26158e-06 2.07431 2.26158e-06C 0.928702 2.26158e-06 0 0.928699 0 2.07431C 0 3.21992 0.928702 4.14862 2.07431 4.14862Z"/>
<path id="path19_fill" d="M 2.07431 4.14862C 3.21992 4.14862 4.14862 3.21992 4.14862 2.07431C 4.14862 0.928699 3.21992 2.26158e-06 2.07431 2.26158e-06C 0.928699 2.26158e-06 0 0.928699 0 2.07431C 0 3.21992 0.928699 4.14862 2.07431 4.14862Z"/>
<path id="path20_fill" d="M 2.07431 4.14862C 3.21992 4.14862 4.14862 3.21992 4.14862 2.07431C 4.14862 0.928699 3.21992 2.26158e-06 2.07431 2.26158e-06C 0.928701 2.26158e-06 0 0.928699 0 2.07431C 0 3.21992 0.928701 4.14862 2.07431 4.14862Z"/>
<path id="path21_fill" d="M 6.1607 2.26158e-06C 5.01553 2.26158e-06 4.08639 0.929838 4.08639 2.07431C 4.08639 3.13069 4.8778 3.99271 5.89783 4.12275L 5.5203 4.12275L 5.5203 6.58438L -5.54727e-07 6.58438L -5.54727e-07 11.976L 0.754357 11.976L 0.754357 7.33873L 6.27466 7.33873L 6.27466 4.13883C 7.36599 4.07801 8.23501 3.18172 8.23501 2.07501C 8.23501 0.929837 7.30587 2.26158e-06 6.1607 2.26158e-06Z"/>
<path id="path22_fill" d="M 4.65199 5.09244L -4.9072e-07 5.09244L -4.9072e-07 7.82672L 0.754359 7.82672L 0.754359 5.8468L 5.40704 5.8468L 5.40704 9.38769e-07L 5.02952 9.38769e-07L 4.65199 9.38769e-07L 4.65199 5.09244Z"/>
<path id="path23_fill" d="M 2.38892 1.86807L 7.46748e-07 1.86807L 7.46748e-07 7.74983L 0.754358 7.74983L 0.754358 2.61474L 3.14258 2.61474L 3.14258 9.38769e-07L 2.6406 9.38769e-07L 2.38892 9.38769e-07L 2.38892 1.86807Z"/>
<path id="path24_fill" d="M 6.16 9.38769e-07L 5.78318 9.38769e-07L 5.40565 9.38769e-07L 5.40565 2.18337L 0.755057 2.18337L 0.755057 9.38769e-07L 0.376829 9.38769e-07L -9.60104e-07 9.38769e-07L -9.60104e-07 7.82672L 0.755057 7.82672L 0.755057 2.93843L 6.16 2.93843L 6.16 9.38769e-07Z"/>
<path id="path25_fill" d="M 2.07431 4.14862C 3.21992 4.14862 4.14862 3.21992 4.14862 2.07431C 4.14862 0.928699 3.21992 0 2.07431 0C 0.9287 0 0 0.928699 0 2.07431C 0 3.21992 0.9287 4.14862 2.07431 4.14862Z"/>
<path id="path26_fill" d="M 9.82413 1.08812e-06C 8.71741 1.08812e-06 7.82183 0.868314 7.76101 1.96035L 1.17346e-07 1.96035L 1.17346e-07 2.71471L 7.77569 2.71471L 7.77569 2.33788C 7.90642 3.3572 8.76775 4.14932 9.82343 4.14932C 10.9693 4.14932 11.8977 3.22018 11.8977 2.07501C 11.8984 0.929139 10.9693 1.08812e-06 9.82413 1.08812e-06Z"/>
<path id="path27_fill" d="M 2.07431 4.14862C 3.21992 4.14862 4.14862 3.21992 4.14862 2.07431C 4.14862 0.928701 3.21992 0 2.07431 0C 0.9287 0 0 0.928701 0 2.07431C 0 3.21992 0.9287 4.14862 2.07431 4.14862Z"/>
<path id="path28_fill" d="M 2.73428 4.65199L 2.73428 5.76063e-07L 2.40026e-08 5.76063e-07L 2.40026e-08 0.754357L 1.98063 0.754357L 1.98063 5.40565L 7.82602 5.40565L 7.82602 4.84005L 7.82602 4.65199L 2.73428 4.65199Z"/>
<path id="path29_fill" d="M 7.85259 2.57698L 7.85259 2.33718C 7.98333 3.35721 8.84465 4.14932 9.90033 4.14932C 11.0462 4.14932 11.9746 3.22018 11.9746 2.07431C 11.9746 0.928441 11.0455 -1.23747e-06 9.90033 -1.23747e-06C 8.84116 -1.23747e-06 7.97773 0.797006 7.85119 1.82193L 4.63661 1.82193L 4.63661 7.34223L 2.40026e-08 7.34223L 2.40026e-08 8.09589L 4.84844 8.09589L 4.84844 8.11966L 7.89803 8.11966C 8.12735 9.01594 8.93344 9.68081 9.90033 9.68081C 11.0462 9.68081 11.9746 8.75167 11.9746 7.6058C 11.9746 6.46063 11.0455 5.53149 9.90033 5.53149C 8.83696 5.53149 7.97074 6.33409 7.84979 7.3653L 5.39097 7.3653L 5.39097 2.57558L 7.85259 2.57558L 7.85259 2.57698Z"/>
<path id="path30_fill" d="M 1.50242 -1.30147e-06L 1.50242 4.58906L 1.17346e-07 4.58906L 1.17346e-07 5.34342L 2.25678 5.34342L 2.25678 0.754358L 7.74912 0.754358L 7.74912 0.377528L 7.74912 -1.30147e-06L 1.50242 -1.30147e-06Z"/>
</defs>
</svg>
